<?xml version="1.0" encoding="UTF-8"?>
<svg xmlns="http://www.w3.org/2000/svg"
     viewBox="0 0 1800 1250" width="1800" height="1250">
<defs>
  <!-- Arrowhead markers for each track colour -->
  <marker id="ah-f" viewBox="0 0 12 12" refX="10" refY="6"
          markerWidth="9" markerHeight="9" orient="auto">
    <path d="M 0 1 L 11 6 L 0 11 Z" fill="#a78bfa"/>
  </marker>
  <marker id="ah-g" viewBox="0 0 12 12" refX="10" refY="6"
          markerWidth="9" markerHeight="9" orient="auto">
    <path d="M 0 1 L 11 6 L 0 11 Z" fill="#38bdf8"/>
  </marker>
  <marker id="ah-e" viewBox="0 0 12 12" refX="10" refY="6"
          markerWidth="9" markerHeight="9" orient="auto">
    <path d="M 0 1 L 11 6 L 0 11 Z" fill="#34d399"/>
  </marker>
  <marker id="ah-a" viewBox="0 0 12 12" refX="10" refY="6"
          markerWidth="9" markerHeight="9" orient="auto">
    <path d="M 0 1 L 11 6 L 0 11 Z" fill="#fb923c"/>
  </marker>
  <filter id="glow" x="-30%" y="-30%" width="160%" height="160%">
    <feGaussianBlur stdDeviation="5" result="b"/>
    <feMerge><feMergeNode in="b"/><feMergeNode in="SourceGraphic"/></feMerge>
  </filter>
</defs>

<!-- ── Background ─────────────────────────────────────────────────── -->
<rect width="1800" height="1250" fill="#0f172a"/>


<!-- ── Title ──────────────────────────────────────────────────────── -->
<text x="900" y="44" text-anchor="middle"
      font-family="'Courier New',monospace" font-size="27"
      font-weight="bold" fill="#f1f5f9">
  GPT Evolution &amp; Alignment — Research Map
</text>
<text x="900" y="70" text-anchor="middle"
      font-family="system-ui,sans-serif" font-size="13.5" fill="#94a3b8">
  How pre-training &#8594; scale &#8594; alignment built the LLMs we use today (2017–2023)
</text>


<!-- ── Track headers ──────────────────────────────────────────────── -->
<rect x="75"  y="86" width="330"  height="30" rx="7"
      fill="#38bdf8"   fill-opacity="0.12" stroke="#38bdf8"   stroke-width="1.3"/>
<text x="240" y="106" text-anchor="middle"
      font-family="system-ui,sans-serif" font-size="12.5"
      font-weight="bold" fill="#38bdf8">&#8594; GPT SERIES (Decoder-Only)</text>

<rect x="410" y="86" width="315"  height="30" rx="7"
      fill="#34d399"   fill-opacity="0.12" stroke="#34d399"   stroke-width="1.3"/>
<text x="568" y="106" text-anchor="middle"
      font-family="system-ui,sans-serif" font-size="12.5"
      font-weight="bold" fill="#34d399">&#8644; ENCODER MODELS</text>

<rect x="730" y="86" width="1058" height="30" rx="7"
      fill="#fb923c" fill-opacity="0.12" stroke="#fb923c" stroke-width="1.3"/>
<text x="1259" y="106" text-anchor="middle"
      font-family="system-ui,sans-serif" font-size="12.5"
      font-weight="bold" fill="#fb923c">&#9878; ALIGNMENT TRACK · Making GPT Helpful &amp; Safe</text>


<!-- ── Track dividers ─────────────────────────────────────────────── -->
<line x1="405" y1="120" x2="405" y2="1210"
      stroke="#1c2e42" stroke-width="1" stroke-dasharray="4,6"/>
<line x1="725" y1="120" x2="725" y2="1210"
      stroke="#1c2e42" stroke-width="1" stroke-dasharray="4,6"/>

<!-- ── Year labels ────────────────────────────────────────────────── -->
<text x="30" y="201" font-family="system-ui,sans-serif" font-size="15" font-weight="bold" fill="#4a6080">2017</text>
<line x1="78" y1="118" x2="1785" y2="118" stroke="#16253a" stroke-width="0.9" stroke-dasharray="3,9"/>
<text x="30" y="376" font-family="system-ui,sans-serif" font-size="15" font-weight="bold" fill="#4a6080">2018</text>
<line x1="78" y1="293" x2="1785" y2="293" stroke="#16253a" stroke-width="0.9" stroke-dasharray="3,9"/>
<text x="30" y="551" font-family="system-ui,sans-serif" font-size="15" font-weight="bold" fill="#4a6080">2019</text>
<line x1="78" y1="468" x2="1785" y2="468" stroke="#16253a" stroke-width="0.9" stroke-dasharray="3,9"/>
<text x="30" y="726" font-family="system-ui,sans-serif" font-size="15" font-weight="bold" fill="#4a6080">2020</text>
<line x1="78" y1="643" x2="1785" y2="643" stroke="#16253a" stroke-width="0.9" stroke-dasharray="3,9"/>
<text x="30" y="941" font-family="system-ui,sans-serif" font-size="15" font-weight="bold" fill="#4a6080">2022</text>
<line x1="78" y1="858" x2="1785" y2="858" stroke="#16253a" stroke-width="0.9" stroke-dasharray="3,9"/>
<text x="30" y="1116" font-family="system-ui,sans-serif" font-size="15" font-weight="bold" fill="#4a6080">2023</text>
<line x1="78" y1="1033" x2="1785" y2="1033" stroke="#16253a" stroke-width="0.9" stroke-dasharray="3,9"/>

<!-- ── Arrows ──────────────────────────────────────────────────────── -->
<line x1="220" y1="256" x2="220" y2="309" stroke="#a78bfa" stroke-width="2.2" marker-end="url(#ah-f)"/>
<text x="230" y="287" font-family="system-ui,sans-serif" font-size="11" fill="#a78bfa">decoder-only</text>
<path d="M 351,195 C 420,195 410,310 404,370" fill="none" stroke="#a78bfa" stroke-width="2.5" marker-end="url(#ah-f)"/>
<rect x="377" y="234" width="116" height="22" rx="5" fill="#0f172a" fill-opacity="0.95" stroke="#a78bfa" stroke-width="0.6" stroke-opacity="0.4"/>
<text x="435" y="250" text-anchor="middle" font-family="system-ui,sans-serif" font-size="11" font-weight="bold" fill="#a78bfa">encoder-only</text>
<line x1="220" y1="431" x2="220" y2="484" stroke="#38bdf8" stroke-width="2.2" marker-end="url(#ah-g)"/>
<text x="230" y="462" font-family="system-ui,sans-serif" font-size="11" fill="#38bdf8">10× params</text>
<line x1="535" y1="431" x2="535" y2="484" stroke="#34d399" stroke-width="2.2" marker-end="url(#ah-e)"/>
<text x="545" y="462" font-family="system-ui,sans-serif" font-size="11" fill="#34d399">+ decoder</text>
<line x1="220" y1="606" x2="220" y2="659" stroke="#38bdf8" stroke-width="2.2" marker-end="url(#ah-g)"/>
<text x="230" y="637" font-family="system-ui,sans-serif" font-size="11" fill="#38bdf8">100× params</text>
<path d="M 351,710 C 520,720 720,855 749,935" fill="none" stroke="#38bdf8" stroke-width="2.8" marker-end="url(#ah-g)"/>
<rect x="522" y="804" width="116" height="22" rx="5" fill="#0f172a" fill-opacity="0.95" stroke="#38bdf8" stroke-width="0.6" stroke-opacity="0.4"/>
<text x="580" y="820" text-anchor="middle" font-family="system-ui,sans-serif" font-size="11" font-weight="bold" fill="#38bdf8">RLHF alignment</text>
<path d="M 351,740 C 570,750 1000,865 1054,935" fill="none" stroke="#38bdf8" stroke-width="2.8" marker-end="url(#ah-g)"/>
<rect x="692" y="834" width="116" height="22" rx="5" fill="#0f172a" fill-opacity="0.95" stroke="#38bdf8" stroke-width="0.6" stroke-opacity="0.4"/>
<text x="750" y="850" text-anchor="middle" font-family="system-ui,sans-serif" font-size="11" font-weight="bold" fill="#38bdf8">Anthropic fork</text>
<line x1="880" y1="996" x2="880" y2="1049" stroke="#fb923c" stroke-width="2.2" marker-end="url(#ah-a)"/>
<line x1="1185" y1="996" x2="1185" y2="1049" stroke="#fb923c" stroke-width="2.2" marker-end="url(#ah-a)"/>
<line x1="1500" y1="996" x2="1500" y2="1049" stroke="#fb923c" stroke-width="2.2" marker-end="url(#ah-a)"/>
<path d="M 1011,915 C 1100,870 1370,870 1369,915" fill="none" stroke="#fb923c" stroke-width="1.8" stroke-dasharray="7,4" marker-end="url(#ah-a)"/>
<rect x="1132" y="845" width="116" height="22" rx="5" fill="#0f172a" fill-opacity="0.95" stroke="#fb923c" stroke-width="0.6" stroke-opacity="0.4"/>
<text x="1190" y="861" text-anchor="middle" font-family="system-ui,sans-serif" font-size="11" font-weight="bold" fill="#fb923c">RLHF methodology</text>
<path d="M 1316,945 C 1310,917 1385,917 1369,945" fill="none" stroke="#fb923c" stroke-width="1.5" stroke-dasharray="7,4" marker-end="url(#ah-a)"/>

<!-- ── Paper cards ──────────────────────────────────────────────────── -->
<!-- Attention Is All You Need -->
<rect x="84" y="129" width="272" height="132" rx="14" fill="#a78bfa" fill-opacity="0.10"/>
<rect x="89" y="134" width="262" height="122" rx="10" fill="#1e293b" stroke="#a78bfa" stroke-width="2.2"/>
<rect x="93" y="138" width="254" height="38" rx="8" fill="#a78bfa" fill-opacity="0.90"/>
<text x="220" y="162" text-anchor="middle" font-family="'Courier New',monospace" font-size="13.5" font-weight="bold" fill="white">Attention Is All You Need</text>
<text x="220" y="190" text-anchor="middle" font-family="system-ui,sans-serif" font-size="10.5" fill="#a78bfa">Vaswani et al. · Google · 2017</text>
<text x="220" y="209" text-anchor="middle" font-family="system-ui,sans-serif" font-size="10" fill="#94a3b8">Self-attention replaces RNN entirely</text>
<text x="220" y="227" text-anchor="middle" font-family="system-ui,sans-serif" font-size="10" fill="#94a3b8">Encoder-Decoder Transformer architecture</text>
<!-- GPT-1 -->
<rect x="84" y="304" width="272" height="132" rx="14" fill="#38bdf8" fill-opacity="0.10"/>
<rect x="89" y="309" width="262" height="122" rx="10" fill="#1e293b" stroke="#38bdf8" stroke-width="2.2"/>
<rect x="93" y="313" width="254" height="38" rx="8" fill="#38bdf8" fill-opacity="0.90"/>
<text x="220" y="337" text-anchor="middle" font-family="'Courier New',monospace" font-size="13.5" font-weight="bold" fill="white">GPT-1</text>
<text x="220" y="365" text-anchor="middle" font-family="system-ui,sans-serif" font-size="10.5" fill="#38bdf8">Radford et al. · OpenAI · 2018</text>
<text x="220" y="384" text-anchor="middle" font-family="system-ui,sans-serif" font-size="10" fill="#94a3b8">Pre-train on BooksCorpus (~800M words)</text>
<text x="220" y="402" text-anchor="middle" font-family="system-ui,sans-serif" font-size="10" fill="#94a3b8">Fine-tune → SOTA on 9 of 12 NLP tasks</text>
<!-- BERT -->
<rect x="399" y="304" width="272" height="132" rx="14" fill="#34d399" fill-opacity="0.10"/>
<rect x="404" y="309" width="262" height="122" rx="10" fill="#1e293b" stroke="#34d399" stroke-width="2.2"/>
<rect x="408" y="313" width="254" height="38" rx="8" fill="#34d399" fill-opacity="0.90"/>
<text x="535" y="337" text-anchor="middle" font-family="'Courier New',monospace" font-size="13.5" font-weight="bold" fill="white">BERT</text>
<text x="535" y="365" text-anchor="middle" font-family="system-ui,sans-serif" font-size="10.5" fill="#34d399">Devlin et al. · Google · 2018</text>
<text x="535" y="384" text-anchor="middle" font-family="system-ui,sans-serif" font-size="10" fill="#94a3b8">Bidirectional MLM + NSP pre-training</text>
<text x="535" y="402" text-anchor="middle" font-family="system-ui,sans-serif" font-size="10" fill="#94a3b8">Encoder-only · best for NLU / classification</text>
<!-- GPT-2 -->
<rect x="84" y="479" width="272" height="132" rx="14" fill="#38bdf8" fill-opacity="0.10"/>
<rect x="89" y="484" width="262" height="122" rx="10" fill="#1e293b" stroke="#38bdf8" stroke-width="2.2"/>
<rect x="93" y="488" width="254" height="38" rx="8" fill="#38bdf8" fill-opacity="0.90"/>
<text x="220" y="512" text-anchor="middle" font-family="'Courier New',monospace" font-size="13.5" font-weight="bold" fill="white">GPT-2</text>
<text x="220" y="540" text-anchor="middle" font-family="system-ui,sans-serif" font-size="10.5" fill="#38bdf8">Radford et al. · OpenAI · 2019</text>
<text x="220" y="559" text-anchor="middle" font-family="system-ui,sans-serif" font-size="10" fill="#94a3b8">Scale to 1.5B params, WebText ~8B tokens</text>
<text x="220" y="577" text-anchor="middle" font-family="system-ui,sans-serif" font-size="10" fill="#94a3b8">Zero-shot multitask transfer</text>
<!-- BART -->
<rect x="399" y="479" width="272" height="132" rx="14" fill="#34d399" fill-opacity="0.10"/>
<rect x="404" y="484" width="262" height="122" rx="10" fill="#1e293b" stroke="#34d399" stroke-width="2.2"/>
<rect x="408" y="488" width="254" height="38" rx="8" fill="#34d399" fill-opacity="0.90"/>
<text x="535" y="512" text-anchor="middle" font-family="'Courier New',monospace" font-size="13.5" font-weight="bold" fill="white">BART</text>
<text x="535" y="540" text-anchor="middle" font-family="system-ui,sans-serif" font-size="10.5" fill="#34d399">Lewis et al. · Facebook AI · 2019</text>
<text x="535" y="559" text-anchor="middle" font-family="system-ui,sans-serif" font-size="10" fill="#94a3b8">BERT encoder + GPT decoder combined</text>
<text x="535" y="577" text-anchor="middle" font-family="system-ui,sans-serif" font-size="10" fill="#94a3b8">Denoising seq2seq · ROUGE-1 = 44.16</text>
<!-- GPT-3 -->
<rect x="84" y="654" width="272" height="132" rx="14" fill="#38bdf8" fill-opacity="0.10"/>
<rect x="89" y="659" width="262" height="122" rx="10" fill="#1e293b" stroke="#38bdf8" stroke-width="2.2"/>
<rect x="93" y="663" width="254" height="38" rx="8" fill="#38bdf8" fill-opacity="0.90"/>
<text x="220" y="687" text-anchor="middle" font-family="'Courier New',monospace" font-size="13.5" font-weight="bold" fill="white">GPT-3</text>
<text x="220" y="715" text-anchor="middle" font-family="system-ui,sans-serif" font-size="10.5" fill="#38bdf8">Brown et al. · OpenAI · 2020</text>
<text x="220" y="734" text-anchor="middle" font-family="system-ui,sans-serif" font-size="10" fill="#94a3b8">175B params · 300B training tokens</text>
<text x="220" y="752" text-anchor="middle" font-family="system-ui,sans-serif" font-size="10" fill="#94a3b8">Few-shot in-context learning (no fine-tune)</text>
<!-- InstructGPT -->
<rect x="744" y="869" width="272" height="132" rx="14" fill="#fb923c" fill-opacity="0.10"/>
<rect x="749" y="874" width="262" height="122" rx="10" fill="#1e293b" stroke="#fb923c" stroke-width="2.2"/>
<rect x="753" y="878" width="254" height="38" rx="8" fill="#fb923c" fill-opacity="0.90"/>
<text x="880" y="902" text-anchor="middle" font-family="'Courier New',monospace" font-size="13.5" font-weight="bold" fill="white">InstructGPT</text>
<text x="880" y="930" text-anchor="middle" font-family="system-ui,sans-serif" font-size="10.5" fill="#fb923c">Ouyang et al. · OpenAI · 2022</text>
<text x="880" y="949" text-anchor="middle" font-family="system-ui,sans-serif" font-size="10" fill="#94a3b8">SFT → Reward Model → PPO</text>
<text x="880" y="967" text-anchor="middle" font-family="system-ui,sans-serif" font-size="10" fill="#94a3b8">85% preferred over 175B raw GPT-3</text>
<rect x="926" y="974" width="81" height="18" rx="5" fill="#f472b6" fill-opacity="0.18" stroke="#f472b6" stroke-width="1.2"/>
<text x="966" y="987" text-anchor="middle" font-family="system-ui,sans-serif" font-size="9.5" font-weight="bold" fill="#f472b6">→ ChatGPT</text>
<!-- HH-RLHF -->
<rect x="1049" y="869" width="272" height="132" rx="14" fill="#fb923c" fill-opacity="0.10"/>
<rect x="1054" y="874" width="262" height="122" rx="10" fill="#1e293b" stroke="#fb923c" stroke-width="2.2"/>
<rect x="1058" y="878" width="254" height="38" rx="8" fill="#fb923c" fill-opacity="0.90"/>
<text x="1185" y="902" text-anchor="middle" font-family="'Courier New',monospace" font-size="13.5" font-weight="bold" fill="white">HH-RLHF</text>
<text x="1185" y="930" text-anchor="middle" font-family="system-ui,sans-serif" font-size="10.5" fill="#fb923c">Bai et al. · Anthropic · 2022</text>
<text x="1185" y="949" text-anchor="middle" font-family="system-ui,sans-serif" font-size="10" fill="#94a3b8">Helpful + Harmless tradeoff study</text>
<text x="1185" y="967" text-anchor="middle" font-family="system-ui,sans-serif" font-size="10" fill="#94a3b8">~170K human preference pairs</text>
<!-- Constitutional AI -->
<rect x="1364" y="869" width="272" height="132" rx="14" fill="#fb923c" fill-opacity="0.10"/>
<rect x="1369" y="874" width="262" height="122" rx="10" fill="#1e293b" stroke="#fb923c" stroke-width="2.2"/>
<rect x="1373" y="878" width="254" height="38" rx="8" fill="#fb923c" fill-opacity="0.90"/>
<text x="1500" y="902" text-anchor="middle" font-family="'Courier New',monospace" font-size="13.5" font-weight="bold" fill="white">Constitutional AI</text>
<text x="1500" y="930" text-anchor="middle" font-family="system-ui,sans-serif" font-size="10.5" fill="#fb923c">Bai et al. · Anthropic · 2022</text>
<text x="1500" y="949" text-anchor="middle" font-family="system-ui,sans-serif" font-size="10" fill="#94a3b8">AI critiques itself via 16 written rules</text>
<text x="1500" y="967" text-anchor="middle" font-family="system-ui,sans-serif" font-size="10" fill="#94a3b8">RLAIF: AI labels replace human feedback</text>
<rect x="1553" y="974" width="74" height="18" rx="5" fill="#fb923c" fill-opacity="0.18" stroke="#fb923c" stroke-width="1.2"/>
<text x="1590" y="987" text-anchor="middle" font-family="system-ui,sans-serif" font-size="9.5" font-weight="bold" fill="#fb923c">→ Claude</text>
<!-- RLAIF -->
<rect x="744" y="1044" width="272" height="132" rx="14" fill="#fb923c" fill-opacity="0.10"/>
<rect x="749" y="1049" width="262" height="122" rx="10" fill="#1e293b" stroke="#fb923c" stroke-width="2.2"/>
<rect x="753" y="1053" width="254" height="38" rx="8" fill="#fb923c" fill-opacity="0.90"/>
<text x="880" y="1077" text-anchor="middle" font-family="'Courier New',monospace" font-size="13.5" font-weight="bold" fill="white">RLAIF</text>
<text x="880" y="1105" text-anchor="middle" font-family="system-ui,sans-serif" font-size="10.5" fill="#fb923c">Lee et al. · Google · 2023</text>
<text x="880" y="1124" text-anchor="middle" font-family="system-ui,sans-serif" font-size="10" fill="#94a3b8">Validates: AI feedback ≈ human feedback</text>
<text x="880" y="1142" text-anchor="middle" font-family="system-ui,sans-serif" font-size="10" fill="#94a3b8">~71-73% win rate validated at scale</text>
<!-- DPO -->
<rect x="1049" y="1044" width="272" height="132" rx="14" fill="#fb923c" fill-opacity="0.10"/>
<rect x="1054" y="1049" width="262" height="122" rx="10" fill="#1e293b" stroke="#fb923c" stroke-width="2.2"/>
<rect x="1058" y="1053" width="254" height="38" rx="8" fill="#fb923c" fill-opacity="0.90"/>
<text x="1185" y="1077" text-anchor="middle" font-family="'Courier New',monospace" font-size="13.5" font-weight="bold" fill="white">DPO</text>
<text x="1185" y="1105" text-anchor="middle" font-family="system-ui,sans-serif" font-size="10.5" fill="#fb923c">Rafailov et al. · Stanford · 2023</text>
<text x="1185" y="1124" text-anchor="middle" font-family="system-ui,sans-serif" font-size="10" fill="#94a3b8">No reward model, no PPO required</text>
<text x="1185" y="1142" text-anchor="middle" font-family="system-ui,sans-serif" font-size="10" fill="#94a3b8">Closed-form preference optimisation</text>
<!-- SELF-REFINE -->
<rect x="1364" y="1044" width="272" height="132" rx="14" fill="#fb923c" fill-opacity="0.10"/>
<rect x="1369" y="1049" width="262" height="122" rx="10" fill="#1e293b" stroke="#fb923c" stroke-width="2.2"/>
<rect x="1373" y="1053" width="254" height="38" rx="8" fill="#fb923c" fill-opacity="0.90"/>
<text x="1500" y="1077" text-anchor="middle" font-family="'Courier New',monospace" font-size="13.5" font-weight="bold" fill="white">SELF-REFINE</text>
<text x="1500" y="1105" text-anchor="middle" font-family="system-ui,sans-serif" font-size="10.5" fill="#fb923c">Madaan et al. · CMU / AI2 · 2023</text>
<text x="1500" y="1124" text-anchor="middle" font-family="system-ui,sans-serif" font-size="10" fill="#94a3b8">Generate → Critique → Refine loop</text>
<text x="1500" y="1142" text-anchor="middle" font-family="system-ui,sans-serif" font-size="10" fill="#94a3b8">No extra training · ~20% avg improvement</text>

<!-- ── Legend ─────────────────────────────────────────────────────── -->
<rect x="75"  y="1200" width="14" height="14" rx="3" fill="#a78bfa"/>
<text x="96"  y="1212" font-family="system-ui,sans-serif" font-size="12" fill="#94a3b8">Foundation Architecture</text>
<rect x="295" y="1200" width="14" height="14" rx="3" fill="#38bdf8"/>
<text x="316" y="1212" font-family="system-ui,sans-serif" font-size="12" fill="#94a3b8">GPT Series (Decoder-Only)</text>
<rect x="545" y="1200" width="14" height="14" rx="3" fill="#34d399"/>
<text x="566" y="1212" font-family="system-ui,sans-serif" font-size="12" fill="#94a3b8">Encoder Models (Bidirectional)</text>
<rect x="820" y="1200" width="14" height="14" rx="3" fill="#fb923c"/>
<text x="841" y="1212" font-family="system-ui,sans-serif" font-size="12" fill="#94a3b8">Alignment Research</text>
<line x1="1090" y1="1207" x2="1120" y2="1207" stroke="#38bdf8" stroke-width="2.2" stroke-dasharray="5,3" marker-end="url(#ah-g)"/>
<text x="1128" y="1212" font-family="system-ui,sans-serif" font-size="12" fill="#94a3b8">builds on</text>
<line x1="1260" y1="1207" x2="1290" y2="1207" stroke="#fb923c" stroke-width="1.8" stroke-dasharray="6,4" marker-end="url(#ah-a)"/>
<text x="1298" y="1212" font-family="system-ui,sans-serif" font-size="12" fill="#94a3b8">methodology influence</text>

</svg>